# This file uses centimeters as units for non-parametric coordinates.

mtllib Computer.mtl
g default
v -3.354987 -0.002913 4.334893
v 3.354987 -0.002913 4.334893
v -3.354987 1.803326 4.334893
v 3.354987 1.803326 4.334893
v -3.354987 1.803326 -4.334893
v 3.354987 1.803326 -4.334893
v -3.354987 -0.002913 -4.334893
v 3.354987 -0.002913 -4.334893
v 0.000000 1.803326 0.000000
v 0.000000 1.803326 4.334893
v 3.354987 1.803326 0.000000
v 0.000000 1.803326 -4.334893
v -3.354987 1.803326 0.000000
vt 0.375000 0.000000
vt 0.625000 0.000000
vt 0.375000 0.250000
vt 0.625000 0.250000
vt 0.375000 0.500000
vt 0.625000 0.500000
vt 0.375000 0.750000
vt 0.625000 0.750000
vt 0.375000 1.000000
vt 0.625000 1.000000
vt 0.875000 0.000000
vt 0.875000 0.250000
vt 0.125000 0.000000
vt 0.125000 0.250000
vt 0.500000 0.375000
vt 0.500000 0.250000
vt 0.625000 0.375000
vt 0.750000 0.250000
vt 0.500000 0.500000
vt 0.250000 0.250000
vt 0.375000 0.375000
vn -0.254829 -0.946660 0.197225
vn 0.254829 -0.946660 0.197225
vn 0.790817 0.000000 0.612052
vn 0.000000 0.000000 1.000000
vn -0.790817 0.000000 0.612052
vn 0.000000 1.000000 0.000000
vn 0.000000 1.000000 0.000000
vn 0.000000 1.000000 0.000000
vn 0.000000 1.000000 0.000000
vn -0.790817 0.000000 -0.612052
vn 0.000000 0.000000 -1.000000
vn 0.790817 0.000000 -0.612052
vn 0.254829 -0.946660 -0.197225
vn -0.254829 -0.946660 -0.197225
vn 1.000000 0.000000 0.000000
vn -1.000000 0.000000 0.000000
vn 0.000000 1.000000 0.000000
vn 0.000000 1.000000 0.000000
vn 0.000000 1.000000 0.000000
vn 0.000000 1.000000 0.000000
vn 0.000000 1.000000 0.000000
s 1
g pCube1
usemtl initialShadingGroup
f 1/1/1 2/2/2 4/4/3 10/16/4 3/3/5
s 2
f 13/21/6 3/3/7 10/16/8 9/15/9
s 1
f 5/5/10 12/19/11 6/6/12 8/8/13 7/7/14
f 7/7/14 8/8/13 2/10/2 1/9/1
f 2/2/2 8/11/13 6/12/12 11/18/15 4/4/3
f 7/13/14 1/1/1 3/3/5 13/20/16 5/14/10
s 2
f 10/16/8 4/4/17 11/17/18 9/15/9
f 11/17/18 6/6/19 12/19/20 9/15/9
f 12/19/20 5/5/21 13/21/6 9/15/9
g default
v -3.173013 2.822188 4.101466
v 2.370346 2.822188 4.101466
v -3.173013 9.311270 4.101466
v 2.370346 9.311270 4.101466
v -3.173013 9.311270 -4.101466
v 2.370346 9.311270 -4.101466
v -3.173013 2.822188 -4.101466
v 2.370346 2.822188 -4.101466
v -3.173013 8.138582 4.101466
v -3.173013 8.138582 -4.101466
v 2.370346 8.138582 -4.101466
v 2.370346 8.138582 4.101466
v -3.173013 9.311270 -2.758490
v -4.879467 7.628487 -2.082265
v -3.173013 2.822188 -2.758490
v 2.370346 2.822188 -2.758490
v 2.370346 8.584378 -3.349473
v 2.370346 9.311270 -2.758490
v -3.173013 3.903128 4.101466
v -4.879467 4.413224 -2.082265
v -3.173013 3.903128 -4.101466
v 2.370346 3.903128 -4.101466
v 2.370346 3.457332 -3.349473
v 2.370346 3.903128 4.101466
v -3.173013 9.311270 2.856371
v -4.879467 7.628487 2.180145
v -4.879467 4.413224 2.180145
v -3.173013 2.822188 2.856371
v 2.370346 2.822188 2.856371
v 2.370346 3.457332 3.447353
v 2.370346 8.584378 3.447353
v 2.370346 9.311270 2.856371
v 2.009905 3.457332 3.447353
v 2.009905 8.584378 3.447353
v 2.009905 3.457332 -3.349473
v 2.009905 8.584378 -3.349473
v 2.052313 3.457332 3.447353
v 2.052313 8.584378 3.447353
v 2.052313 3.457332 -3.349473
v 2.052313 8.584378 -3.349473
v -3.173013 2.822188 0.142849
v -4.879467 4.413224 0.120229
v -4.879467 7.628487 0.120229
v -3.173013 9.311270 0.142849
v 2.370346 9.311270 0.142849
v 2.370346 8.584378 0.162617
v 2.009905 8.584378 0.162617
v 2.052313 8.584378 0.162617
v 2.052313 3.457332 0.162617
v 2.009905 3.457332 0.162617
v 2.370346 3.457332 0.162617
v 2.370346 2.822188 0.142849
v -3.173013 6.210815 -4.101466
v -4.879467 6.165060 -2.082265
v -4.879467 6.165060 0.120229
v -4.879467 6.165060 2.180145
v -3.173013 6.210815 4.101466
v 2.370346 6.210815 4.101466
v 2.370346 6.250803 3.447353
v 2.009905 6.250803 3.447353
v 2.052313 6.250803 3.447353
v 2.469153 6.193316 0.118146
v 2.052313 6.250803 -3.349473
v 2.009905 6.250803 -3.349473
v 2.370346 6.250803 -3.349473
v 2.370346 6.210815 -4.101466
v 2.309307 7.417590 -1.609480
v 2.373245 7.417590 0.118146
v 2.373245 6.193316 -1.609480
v 2.052313 7.417590 -3.349473
v 2.052313 8.584378 -1.593428
v 2.309307 7.417590 1.788933
v 2.052313 7.417590 3.447353
v 2.373245 6.193316 1.788933
v 2.052313 8.584378 1.804985
v 2.309307 4.854068 1.788933
v 2.052313 4.854068 3.447353
v 2.052313 3.457332 1.804985
v 2.373245 4.854068 0.118146
v 2.309307 4.854068 -1.609480
v 2.052313 3.457332 -1.593428
v 2.052313 4.854068 -3.349473
vt 0.375000 0.000000
vt 0.625000 0.000000
vt 0.375000 0.250000
vt 0.625000 0.250000
vt 0.375000 0.500000
vt 0.625000 0.500000
vt 0.375000 0.750000
vt 0.625000 0.750000
vt 0.375000 1.000000
vt 0.625000 1.000000
vt 0.875000 0.000000
vt 0.875000 0.250000
vt 0.125000 0.000000
vt 0.125000 0.250000
vt 0.375000 0.204821
vt 0.125000 0.204821
vt 0.375000 0.545179
vt 0.625000 0.545179
vt 0.875000 0.204821
vt 0.625000 0.204821
vt 0.165930 0.250000
vt 0.375000 0.459070
vt 0.165930 0.204821
vt 0.165930 0.000000
vt 0.375000 0.790930
vt 0.625000 0.790930
vt 0.834070 0.000000
vt 0.834070 0.204821
vt 0.625000 0.459070
vt 0.834070 0.250000
vt 0.375000 0.041645
vt 0.165930 0.041645
vt 0.125000 0.041645
vt 0.375000 0.708355
vt 0.625000 0.708355
vt 0.875000 0.041645
vt 0.834070 0.041645
vt 0.625000 0.041645
vt 0.337053 0.250000
vt 0.375000 0.287947
vt 0.337053 0.204821
vt 0.337053 0.041645
vt 0.337053 0.000000
vt 0.375000 0.962053
vt 0.625000 0.962053
vt 0.662947 0.000000
vt 0.662947 0.041645
vt 0.662947 0.204821
vt 0.625000 0.287947
vt 0.662947 0.250000
vt 0.669298 0.195903
vt 0.669298 0.050586
vt 0.827617 0.050586
vt 0.827617 0.195903
vt 0.669298 0.194752
vt 0.669298 0.051728
vt 0.827617 0.051728
vt 0.827617 0.194752
vt 0.254354 0.000000
vt 0.375000 0.879354
vt 0.254354 0.041645
vt 0.254354 0.204821
vt 0.254354 0.250000
vt 0.375000 0.370646
vt 0.625000 0.370646
vt 0.745646 0.250000
vt 0.745646 0.204821
vt 0.746088 0.195903
vt 0.746088 0.194752
vt 0.746088 0.051728
vt 0.746088 0.050586
vt 0.745646 0.041645
vt 0.625000 0.879354
vt 0.745646 0.000000
vt 0.125000 0.130551
vt 0.375000 0.619449
vt 0.165930 0.130551
vt 0.254354 0.130551
vt 0.337053 0.130551
vt 0.375000 0.130551
vt 0.625000 0.130551
vt 0.662947 0.130551
vt 0.669298 0.129092
vt 0.669298 0.129092
vt 0.746088 0.129092
vt 0.827617 0.129092
vt 0.827617 0.129092
vt 0.834070 0.130551
vt 0.625000 0.619449
vt 0.875000 0.130551
vt 0.787285 0.162376
vt 0.746088 0.162376
vt 0.787285 0.129092
vt 0.827617 0.162376
vt 0.787285 0.194752
vt 0.707265 0.162376
vt 0.669298 0.162376
vt 0.707265 0.129092
vt 0.707265 0.194752
vt 0.707265 0.090552
vt 0.669298 0.090552
vt 0.707265 0.051728
vt 0.746088 0.090552
vt 0.787285 0.090552
vt 0.787285 0.051728
vt 0.827617 0.090552
vn -0.188905 -0.741535 0.643770
vn 0.081665 -0.752609 0.653384
vn 0.149159 0.000000 0.988813
vn -0.241361 -0.050816 0.969104
vn -0.194911 0.713995 0.672473
vn 0.087839 0.725143 0.682973
vn 0.157731 0.987482 0.000000
vn -0.217512 0.975185 0.041257
vn -0.254177 -0.054487 -0.965622
vn 0.167690 0.000000 -0.985840
vn 0.086828 -0.776067 -0.624644
vn -0.192195 -0.764486 -0.615323
vn -0.205025 -0.978009 0.038247
vn 0.140798 -0.990038 0.000000
vn 0.911259 0.313723 -0.266803
vn -0.893534 -0.342248 0.290626
vn -0.889582 0.369204 0.268946
vn -0.245821 0.055629 0.967718
vn -0.198842 0.738207 -0.644603
vn 0.093587 0.749942 -0.654850
vn 0.161181 0.000000 -0.986925
vn -0.258942 0.059639 -0.964050
vn 0.142942 0.000000 0.989731
vn 0.929783 -0.300089 -0.213192
vn -0.892449 0.373071 -0.253678
vn -0.216591 0.975503 -0.038496
vn -0.204163 -0.978286 -0.035686
vn -0.897075 -0.346366 -0.274386
vn 0.141208 -0.989980 0.000000
vn 0.922195 0.302662 0.240734
vn 0.158220 0.987404 0.000000
vn 0.936994 -0.290972 0.193334
vn -0.907960 0.000000 0.419057
vn -0.233100 0.000000 0.972453
vn -0.244286 0.000000 -0.969703
vn -0.916822 0.000000 -0.399296
vn 0.148833 0.000000 -0.988862
vn 0.884676 0.000000 0.466206
vn 0.129884 0.000000 0.991529
vn 0.855151 0.000000 -0.518379
vn -0.865289 0.501274 0.000000
vn -0.205603 0.978635 0.000000
vn -1.000000 0.000000 0.000000
vn -0.194830 -0.980837 0.000000
vn -0.876225 -0.481903 0.000000
vn 0.125699 -0.992068 0.000000
vn 0.849193 0.528082 0.000000
vn 0.983233 0.176710 -0.045028
vn 0.970677 0.240386 0.000334
vn 0.988400 0.151876 -0.000166
vn 0.990977 0.110638 -0.075663
vn 0.143496 0.989651 0.000000
vn 0.878677 -0.477417 0.000000
vn 0.000000 0.000000 -1.000000
vn 0.000000 -0.815218 -0.579155
vn 0.000000 1.000000 0.000000
vn 0.000000 0.782627 0.622491
vn 0.000000 0.000000 1.000000
vn 0.000000 -0.832905 0.553416
vn 0.000000 -1.000000 0.000000
vn 0.000000 0.000000 1.000000
vn 0.000000 0.000000 1.000000
vn 0.000000 0.815216 0.579157
vn 0.000000 -1.000000 0.000000
vn 0.000000 -0.782629 -0.622489
vn 0.000000 -1.000000 0.000000
vn 0.000000 0.000000 -1.000000
vn 0.000000 0.832907 -0.553414
vn 0.000000 0.000000 -1.000000
vn 0.000000 1.000000 0.000000
vn 0.000000 1.000000 0.000000
vn 0.000000 1.000000 0.000000
vn 0.983387 0.175084 0.047911
vn 0.991084 0.108616 0.077164
vn 0.989870 0.066878 0.125236
vn 0.990741 0.110336 0.079105
vn 0.000000 0.761774 -0.647843
vn 0.000000 -1.000000 0.000000
vn 0.000000 -0.761772 0.647845
vn 0.000000 0.000000 1.000000
vn 0.991089 -0.133199 -0.000148
vn 1.000000 -0.000013 -0.000004
vn 0.993956 -0.000333 0.109776
vn 0.992284 -0.095465 0.079113
vn 0.991286 -0.057825 -0.118353
vn 0.986490 0.000632 -0.163817
vn 0.994423 -0.000321 -0.105462
vn 0.992528 -0.095760 -0.075625
vn 0.000000 0.000000 -1.000000
vn 0.990601 0.067632 -0.118896
vn 0.991293 0.109671 -0.072870
vn 0.985159 0.000660 0.171643
vn 0.990548 -0.057186 0.124676
vn 0.992856 -0.090897 0.077302
vn 0.987966 -0.147000 0.048103
vn 0.979264 -0.202588 0.000285
vn 0.987912 -0.148260 -0.045271
vn 0.993099 -0.091783 -0.073003
s 1
g pCube2
usemtl initialShadingGroup
f 14/22/22 15/23/23 37/59/24 32/52/25
f 16/24/26 17/25/27 45/70/28 38/61/29
f 34/55/30 35/56/31 21/29/32 20/28/33
f 41/65/34 42/66/35 15/31/23 14/30/22
f 15/23/23 42/67/35 43/68/36 37/59/24
f 32/52/25 40/63/37 41/64/34 14/22/22
f 38/60/29 39/62/38 22/36/39 16/24/26
f 18/26/40 19/27/41 24/39/42 23/38/43
f 25/41/44 44/69/45 45/71/28 17/25/27
f 22/36/39 25/41/44 17/25/27 16/24/26
f 23/37/43 27/44/46 26/42/47 18/35/40
f 20/34/33 28/45/48 33/53/49 34/54/30
f 20/28/33 21/29/32 29/47/50 28/46/48
f 35/57/31 36/58/51 29/48/50 21/32/32
f 31/51/52 30/49/53 24/40/42 19/33/41
f 26/43/47 31/50/52 19/27/41 18/26/40
f 39/62/38 69/100/54 70/101/55 22/36/39
f 66/96/56 67/98/57 27/44/46 23/37/43
f 23/38/43 24/39/42 79/110/58 66/97/56
f 30/49/53 78/109/59 79/111/58 24/40/42
f 71/102/60 72/103/61 44/69/45 25/41/44
f 70/101/55 71/102/60 25/41/44 22/36/39
f 26/42/47 27/44/46 56/83/62 57/84/63
f 27/44/46 67/98/57 68/99/64 56/83/62
f 54/80/65 55/82/66 33/53/49 28/45/48
f 28/46/48 29/47/50 65/94/67 54/81/65
f 64/93/68 65/95/67 29/48/50 36/58/51
s 5
f 84/116/69 61/90/70 81/113/71 80/112/72
s 1
f 58/87/73 59/88/74 30/49/53 31/51/52
f 57/85/63 58/86/73 31/50/52 26/43/47
f 44/69/45 72/103/61 73/104/75 47/72/76
f 63/92/77 64/93/68 36/58/51 48/74/78
f 77/108/79 78/109/59 30/49/53 49/75/80
f 30/49/53 59/88/74 60/89/81 49/75/80
f 47/72/76 73/104/75 74/105/82 86/118/83 51/76/84
f 62/91/85 63/92/77 48/74/78 52/78/86 94/126/87
f 76/107/88 77/108/79 49/75/80 53/79/89 83/115/90
f 49/75/80 60/89/81 61/90/91 84/116/92 53/79/89
f 41/64/34 40/63/37 55/82/66 54/80/65
f 56/83/62 68/99/64 69/100/54 39/62/38
f 57/84/63 56/83/62 39/62/38 38/60/29
f 38/61/29 45/70/28 58/86/73 57/85/63
f 45/71/28 44/69/45 59/88/74 58/87/73
f 60/89/81 59/88/74 44/69/45 47/72/76
f 61/90/91 60/89/81 47/72/76 51/76/84 88/120/93
s 5
f 88/120/94 51/76/95 86/118/96 85/117/97
s 1
f 46/73/98 63/92/77 62/91/85 91/123/99 50/77/100
f 43/68/36 64/93/68 63/92/77 46/73/98
f 43/68/36 42/67/35 65/95/67 64/93/68
f 54/81/65 65/94/67 42/66/35 41/65/34
f 34/54/30 33/53/49 67/98/57 66/96/56
f 68/99/64 67/98/57 33/53/49 55/82/66
f 69/100/54 68/99/64 55/82/66 40/63/37
f 70/101/55 69/100/54 40/63/37 32/52/25
f 32/52/25 37/59/24 71/102/60 70/101/55
f 37/59/24 43/68/36 72/103/61 71/102/60
f 73/104/75 72/103/61 43/68/36 46/73/98
f 74/105/82 73/104/75 46/73/98 50/77/100 90/122/101
s 5
f 92/124/102 75/106/103 87/119/104 89/121/105
f 95/127/106 76/107/107 82/114/108 93/125/109
s 1
f 48/74/78 77/108/79 76/107/88 95/127/110 52/78/86
f 36/58/51 78/109/59 77/108/79 48/74/78
f 79/111/58 78/109/59 36/58/51 35/57/31
f 66/97/56 79/110/58 35/56/31 34/55/30
s 5
f 81/113/71 75/106/103 82/114/108 80/112/72
f 82/114/108 76/107/107 83/115/111 80/112/72
f 83/115/111 53/79/112 84/116/69 80/112/72
f 86/118/96 74/105/113 87/119/104 85/117/97
f 87/119/104 75/106/103 81/113/71 85/117/97
f 81/113/71 61/90/70 88/120/94 85/117/97
f 87/119/104 74/105/113 90/122/114 89/121/105
f 90/122/114 50/77/115 91/123/116 89/121/105
f 91/123/116 62/91/117 92/124/102 89/121/105
f 82/114/108 75/106/103 92/124/102 93/125/109
f 92/124/102 62/91/117 94/126/118 93/125/109
f 94/126/118 52/78/119 95/127/106 93/125/109
g default
v -3.264403 1.793584 2.855098
v 2.461736 1.793584 2.855098
v -0.760569 2.656028 0.358236
v -0.042098 2.656028 0.358236
v -0.760569 2.656028 -0.358236
v -0.042098 2.656028 -0.358236
v -3.264403 1.793584 -2.855098
v 2.461736 1.793584 -2.855098
v -0.760569 3.063406 0.358236
v -0.042098 3.063406 0.358236
v -0.042098 3.063406 -0.358236
v -0.760569 3.063406 -0.358236
v -0.401334 2.224806 1.606667
v -0.401334 1.793584 2.855098
v 0.807031 2.224806 1.205000
v -0.401334 2.656028 0.358236
v -1.609698 2.224806 1.205000
v -0.401334 2.224806 -1.606667
v -0.401334 2.656028 -0.358236
v 0.807031 2.224806 -1.205000
v -0.401334 1.793584 -2.855098
v -1.609698 2.224806 -1.205000
v 1.209819 2.224806 0.000000
v 2.461736 1.793584 0.000000
v -0.042098 2.656028 0.000000
v -2.012486 2.224806 0.000000
v -3.264403 1.793584 0.000000
v -0.760569 2.656028 0.000000
vt 0.375000 0.000000
vt 0.625000 0.000000
vt 0.375000 0.250000
vt 0.625000 0.250000
vt 0.375000 0.500000
vt 0.625000 0.500000
vt 0.375000 0.750000
vt 0.625000 0.750000
vt 0.375000 1.000000
vt 0.625000 1.000000
vt 0.875000 0.000000
vt 0.875000 0.250000
vt 0.125000 0.000000
vt 0.125000 0.250000
vt 0.375000 0.250000
vt 0.625000 0.250000
vt 0.625000 0.500000
vt 0.375000 0.500000
vt 0.500000 0.125000
vt 0.500000 0.000000
vt 0.500000 1.000000
vt 0.625000 0.125000
vt 0.500000 0.250000
vt 0.375000 0.125000
vt 0.500000 0.625000
vt 0.500000 0.500000
vt 0.625000 0.625000
vt 0.875000 0.125000
vt 0.500000 0.750000
vt 0.125000 0.125000
vt 0.375000 0.625000
vt 0.750000 0.125000
vt 0.625000 0.875000
vt 0.750000 0.000000
vt 0.875000 0.125000
vt 0.625000 0.375000
vt 0.750000 0.250000
vt 0.250000 0.125000
vt 0.250000 0.000000
vt 0.375000 0.875000
vt 0.250000 0.250000
vt 0.375000 0.375000
vt 0.125000 0.125000
vn -0.161033 0.973649 0.161482
vn -0.150783 0.976935 0.151204
vn 0.000000 0.962543 0.271130
vn 0.000000 0.958723 0.284341
vn -0.442113 0.779731 0.443347
vn 0.442113 0.779731 0.443347
vn 0.442113 0.779731 -0.443347
vn -0.442113 0.779731 -0.443347
vn -0.161033 0.973649 -0.161482
vn -0.221872 0.949353 -0.222491
vn 0.000000 0.936973 -0.349402
vn 0.000000 0.958723 -0.284341
vn 0.000000 -1.000000 0.000000
vn 0.000000 -1.000000 0.000000
vn 0.000000 -1.000000 0.000000
vn 0.000000 -1.000000 0.000000
vn 0.000000 -1.000000 0.000000
vn 0.000000 -1.000000 0.000000
vn 0.000000 -1.000000 0.000000
vn 0.000000 -1.000000 0.000000
vn 0.161033 0.973649 0.161482
vn 0.150783 0.976935 0.151204
vn 0.270430 0.962740 -0.000000
vn 0.283613 0.958939 -0.000000
vn -0.150783 0.976935 -0.151204
vn -0.270430 0.962740 0.000000
vn -0.283613 0.958939 0.000000
vn -0.706120 0.000000 0.708092
vn 0.000000 0.000000 1.000000
vn 0.706120 0.000000 0.708092
vn 1.000000 0.000000 0.000000
vn 0.706120 0.000000 -0.708092
vn 0.000000 0.000000 -1.000000
vn -0.706120 0.000000 -0.708092
vn -1.000000 0.000000 0.000000
vn 0.221872 0.949353 0.222491
vn 0.000000 0.936973 0.349402
vn -0.221872 0.949353 0.222491
vn 0.221872 0.949353 -0.222491
vn 0.161033 0.973649 -0.161482
vn 0.150783 0.976935 -0.151204
vn 0.000000 0.962543 -0.271130
vn 0.348548 0.937291 -0.000000
vn -0.348548 0.937291 0.000000
s 1
g pCube3
usemtl initialShadingGroup
f 112/151/120 96/128/121 109/147/122 108/146/123
s 2
f 104/142/124 105/143/125 106/144/126 107/145/127
s 1
f 117/158/128 100/132/129 114/153/130 113/152/131
s off
f 102/134/132 116/156/133 103/135/134 119/160/135 97/137/136 109/148/137 96/136/138 122/167/139
s 1
f 110/149/140 97/129/141 119/161/142 118/159/143
f 117/170/128 102/140/144 122/166/145 121/165/146
s 2
f 98/130/147 111/150/148 99/131/149 105/143/125 104/142/124
f 99/131/149 120/163/150 101/133/151 106/144/126 105/143/125
f 101/133/151 114/153/152 100/132/153 107/145/127 106/144/126
f 100/132/153 123/169/154 98/130/147 104/142/124 107/145/127
s 1
f 109/147/122 97/129/141 110/149/140 108/146/123
f 110/149/140 99/131/155 111/150/156 108/146/123
f 111/150/156 98/130/157 112/151/120 108/146/123
f 114/153/130 101/133/158 115/154/159 113/152/131
f 115/154/159 103/135/160 116/156/161 113/152/131
f 116/156/161 102/134/144 117/158/128 113/152/131
f 119/161/142 103/138/160 115/162/159 118/159/143
f 115/162/159 101/139/158 120/164/162 118/159/143
f 120/164/162 99/131/155 110/149/140 118/159/143
f 122/166/145 96/128/121 112/151/120 121/165/146
f 112/151/120 98/130/157 123/168/163 121/165/146
f 123/168/163 100/141/129 117/170/128 121/165/146
g default
v 4.694453 -0.003656 2.596867
v 7.254676 -0.003656 2.596867
v 4.694453 0.338820 2.596867
v 7.126083 0.167194 2.596867
v 4.694453 0.338820 -2.596867
v 7.126083 0.167194 -2.596867
v 4.694453 -0.003656 -2.596867
v 7.254676 -0.003656 -2.596867
v 6.766255 -0.003656 2.596867
v 6.766255 0.338820 2.596867
v 6.766255 0.338820 -2.596867
v 6.766255 -0.003656 -2.596867
v 6.946169 0.253007 0.000000
v 6.766255 0.338820 0.000000
v 6.946169 0.253007 2.596867
v 7.126083 0.167194 0.000000
v 6.946169 0.253007 -2.596867
vt 0.285161 0.036366
vt 0.574774 0.009418
vt 0.289022 0.074191
vt 0.558398 0.026563
vt 0.408959 0.653621
vt 0.669800 0.585618
vt 0.422527 0.692851
vt 0.689827 0.598464
vt 0.633264 1.236414
vt 0.898925 1.130647
vt 0.991789 0.405701
vt 0.975472 0.422872
vt -0.287128 0.095370
vt -0.283241 0.133106
vt 0.516849 0.001387
vt 0.848570 1.151099
vt 0.516724 0.038734
vt 0.626983 0.589554
vt 0.640474 0.621051
vt 0.592657 0.312339
vt 0.570733 0.316751
vt 0.537269 0.032568
vt 0.614330 0.308015
vt 0.766965 0.224730
vt 0.648126 0.587579
vn -0.162746 -0.984530 0.064920
vn 0.000000 -0.998137 0.061018
vn 0.019802 0.997711 0.064650
vn -0.162746 0.984530 0.064920
vn 0.019844 0.999803 0.000000
vn 0.019802 0.997711 -0.064650
vn -0.162746 0.984530 -0.064920
vn -0.000000 -0.998137 -0.061018
vn -0.162746 -0.984530 -0.064920
vn 0.428449 -0.902358 0.046709
vn 0.428449 -0.902358 -0.046709
vn 0.786903 0.592276 -0.173185
vn 0.798976 0.601363 0.000000
vn 0.786903 0.592276 0.173185
vn 0.000000 0.000000 1.000000
vn 0.430503 0.902589 0.000000
vn 0.430503 0.902589 0.000000
vn -0.000000 0.000000 -1.000000
vn 0.430503 0.902589 -0.000000
vn 0.430503 0.902589 -0.000000
vn 0.430503 0.902589 0.000000
vn 0.430503 0.902589 0.000000
s 1
g pCube4
usemtl initialShadingGroup
f 124/171/164 132/185/165 133/187/166 126/173/167
f 126/173/167 133/187/166 137/191/168 134/188/169 128/175/170
f 128/175/170 134/188/169 135/189/171 130/177/172
f 130/177/172 135/189/171 132/186/165 124/179/164
f 125/172/173 131/181/174 129/182/175 139/194/176 127/174/177
f 130/183/172 124/171/164 126/173/167 128/184/170
f 133/187/166 132/185/165 125/172/173 127/174/177 138/192/178
f 140/195/179 134/188/169 137/191/168 136/190/180
f 135/189/171 134/188/169 140/195/181 129/176/175 131/178/174
f 132/186/165 135/189/171 131/178/174 125/180/173
f 137/191/168 133/187/166 138/192/182 136/190/180
f 138/192/182 127/174/183 139/193/184 136/190/180
f 139/193/184 129/176/185 140/195/179 136/190/180
