# This file uses centimeters as units for non-parametric coordinates.

mtllib grapple point.mtl
g default
v -4.800393 -0.172473 -0.000000
v -0.000000 -0.172473 4.800393
v -4.800393 0.172473 -0.000000
v -0.000000 0.172473 4.800393
v 0.000000 0.172473 -4.800393
v 4.800393 0.172473 0.000000
v 0.000000 -0.172473 -4.800393
v 4.800393 -0.172473 0.000000
vt 0.375000 0.000000
vt 0.625000 0.000000
vt 0.375000 0.250000
vt 0.625000 0.250000
vt 0.375000 0.500000
vt 0.625000 0.500000
vt 0.375000 0.750000
vt 0.625000 0.750000
vt 0.375000 1.000000
vt 0.625000 1.000000
vt 0.875000 0.000000
vt 0.875000 0.250000
vt 0.125000 0.000000
vt 0.125000 0.250000
vn -0.707107 0.000000 0.707107
vn -0.707107 0.000000 0.707107
vn -0.707107 0.000000 0.707107
vn -0.707107 0.000000 0.707107
vn 0.000000 1.000000 0.000000
vn 0.000000 1.000000 0.000000
vn 0.000000 1.000000 0.000000
vn 0.000000 1.000000 0.000000
vn 0.707107 0.000000 -0.707107
vn 0.707107 0.000000 -0.707107
vn 0.707107 0.000000 -0.707107
vn 0.707107 0.000000 -0.707107
vn 0.000000 -1.000000 0.000000
vn 0.000000 -1.000000 0.000000
vn 0.000000 -1.000000 0.000000
vn 0.000000 -1.000000 0.000000
vn 0.707107 0.000000 0.707107
vn 0.707107 0.000000 0.707107
vn 0.707107 0.000000 0.707107
vn 0.707107 0.000000 0.707107
vn -0.707107 0.000000 -0.707107
vn -0.707107 0.000000 -0.707107
vn -0.707107 0.000000 -0.707107
vn -0.707107 0.000000 -0.707107
s off
g pCube1
usemtl initialShadingGroup
f 1/1/1 2/2/2 4/4/3 3/3/4
f 3/3/5 4/4/6 6/6/7 5/5/8
f 5/5/9 6/6/10 8/8/11 7/7/12
f 7/7/13 8/8/14 2/10/15 1/9/16
f 2/2/17 8/11/18 6/12/19 4/4/20
f 7/13/21 1/1/22 3/3/23 5/14/24
g default
v -2.971560 -0.181922 2.971560
v 2.971560 -0.181922 2.971560
v -2.971560 0.414161 2.971560
v 2.971560 0.414161 2.971560
v -2.971560 0.414161 -2.971560
v 2.971560 0.414161 -2.971560
v -2.971560 -0.181922 -2.971560
v 2.971560 -0.181922 -2.971560
vt 0.375000 0.000000
vt 0.625000 0.000000
vt 0.375000 0.250000
vt 0.625000 0.250000
vt 0.375000 0.500000
vt 0.625000 0.500000
vt 0.375000 0.750000
vt 0.625000 0.750000
vt 0.375000 1.000000
vt 0.625000 1.000000
vt 0.875000 0.000000
vt 0.875000 0.250000
vt 0.125000 0.000000
vt 0.125000 0.250000
vn 0.000000 0.000000 1.000000
vn 0.000000 0.000000 1.000000
vn 0.000000 0.000000 1.000000
vn 0.000000 0.000000 1.000000
vn 0.000000 1.000000 0.000000
vn 0.000000 1.000000 0.000000
vn 0.000000 1.000000 0.000000
vn 0.000000 1.000000 0.000000
vn 0.000000 0.000000 -1.000000
vn 0.000000 0.000000 -1.000000
vn 0.000000 0.000000 -1.000000
vn 0.000000 0.000000 -1.000000
vn 0.000000 -1.000000 0.000000
vn 0.000000 -1.000000 0.000000
vn 0.000000 -1.000000 0.000000
vn 0.000000 -1.000000 0.000000
vn 1.000000 0.000000 0.000000
vn 1.000000 0.000000 0.000000
vn 1.000000 0.000000 0.000000
vn 1.000000 0.000000 0.000000
vn -1.000000 0.000000 0.000000
vn -1.000000 0.000000 0.000000
vn -1.000000 0.000000 0.000000
vn -1.000000 0.000000 0.000000
s off
g pCube2
usemtl initialShadingGroup
f 9/15/25 10/16/26 12/18/27 11/17/28
f 11/17/29 12/18/30 14/20/31 13/19/32
f 13/19/33 14/20/34 16/22/35 15/21/36
f 15/21/37 16/22/38 10/24/39 9/23/40
f 10/16/41 16/25/42 14/26/43 12/18/44
f 15/27/45 9/15/46 11/17/47 13/28/48
g default
v -0.973101 0.297202 0.973101
v 0.973101 0.297202 0.973101
v -0.973101 0.492403 0.973101
v 0.973101 0.492403 0.973101
v -0.973101 0.492403 -0.973101
v 0.973101 0.492403 -0.973101
v -0.973101 0.297202 -0.973101
v 0.973101 0.297202 -0.973101
v -0.973101 0.492403 -0.663309
v -0.973101 0.297202 -0.663309
v 0.973101 0.297202 -0.663309
v 0.973101 0.492403 -0.663309
v 0.570504 0.297202 0.973101
v 0.570504 0.492403 0.973101
v 0.570504 0.492403 -0.663309
v 0.570504 0.492403 -0.973101
v 0.570504 0.297202 -0.973101
v 0.570504 0.297202 -0.663309
v -0.973101 0.492403 0.679024
v -0.973101 0.297202 0.679024
v 0.570504 0.297202 0.679024
v 0.973101 0.297202 0.679024
v 0.973101 0.492403 0.679024
v 0.570504 0.492403 0.679024
v -0.535440 0.297202 0.973101
v -0.535440 0.492403 0.973101
v -0.535440 0.492403 0.679024
v -0.535440 0.492403 -0.663309
v -0.535440 0.492403 -0.973101
v -0.535440 0.297202 -0.973101
v -0.535440 0.297202 -0.663309
v -0.535440 0.297202 0.679024
v -0.535440 0.295296 0.679024
v -0.535440 0.295296 -0.663309
v 0.570504 0.295296 0.679024
v 0.570504 0.295296 -0.663309
vt 0.375000 0.000000
vt 0.625000 0.000000
vt 0.375000 0.250000
vt 0.625000 0.250000
vt 0.375000 0.500000
vt 0.625000 0.500000
vt 0.375000 0.750000
vt 0.625000 0.750000
vt 0.375000 1.000000
vt 0.625000 1.000000
vt 0.875000 0.000000
vt 0.875000 0.250000
vt 0.125000 0.000000
vt 0.125000 0.250000
vt 0.164795 0.250000
vt 0.375000 0.460205
vt 0.164795 0.000000
vt 0.375000 0.789795
vt 0.625000 0.789795
vt 0.835205 0.000000
vt 0.625000 0.460205
vt 0.835205 0.250000
vt 0.573284 0.000000
vt 0.573284 1.000000
vt 0.573284 0.250000
vt 0.573284 0.460205
vt 0.573284 0.500000
vt 0.573284 0.750000
vt 0.573284 0.789795
vt 0.337224 0.250000
vt 0.375000 0.287776
vt 0.337224 0.000000
vt 0.375000 0.962224
vt 0.573284 0.962224
vt 0.625000 0.962224
vt 0.662776 0.000000
vt 0.625000 0.287776
vt 0.662776 0.250000
vt 0.573284 0.287776
vt 0.431220 0.000000
vt 0.431220 1.000000
vt 0.431220 0.250000
vt 0.431220 0.287776
vt 0.431220 0.460205
vt 0.431220 0.500000
vt 0.431220 0.750000
vt 0.431220 0.789795
vt 0.431220 0.962224
vt 0.431220 0.460205
vt 0.431220 0.287776
vt 0.573284 0.287776
vt 0.573284 0.460205
vn 0.000000 0.000000 1.000000
vn 0.000000 0.000000 1.000000
vn 0.000000 0.000000 1.000000
vn 0.000000 0.000000 1.000000
vn 0.000000 1.000000 0.000000
vn 0.000000 1.000000 0.000000
vn 0.000000 1.000000 0.000000
vn 0.000000 1.000000 0.000000
vn 0.000000 0.000000 -1.000000
vn 0.000000 0.000000 -1.000000
vn 0.000000 0.000000 -1.000000
vn 0.000000 0.000000 -1.000000
vn 0.000000 -1.000000 0.000000
vn 0.000000 -1.000000 0.000000
vn 0.000000 -1.000000 0.000000
vn 0.000000 -1.000000 0.000000
vn 1.000000 0.000000 0.000000
vn 1.000000 0.000000 0.000000
vn 1.000000 0.000000 0.000000
vn 1.000000 0.000000 0.000000
vn -1.000000 0.000000 0.000000
vn -1.000000 0.000000 0.000000
vn -1.000000 0.000000 0.000000
vn -1.000000 0.000000 0.000000
vn -1.000000 0.000000 0.000000
vn -1.000000 0.000000 0.000000
vn -1.000000 0.000000 0.000000
vn -1.000000 0.000000 0.000000
vn 0.000000 -1.000000 0.000000
vn 0.000000 -1.000000 0.000000
vn 0.000000 -1.000000 0.000000
vn 0.000000 -1.000000 0.000000
vn 1.000000 0.000000 0.000000
vn 1.000000 0.000000 0.000000
vn 1.000000 0.000000 0.000000
vn 1.000000 0.000000 0.000000
vn 0.000000 1.000000 0.000000
vn 0.000000 1.000000 0.000000
vn 0.000000 1.000000 0.000000
vn 0.000000 1.000000 0.000000
vn 0.000000 0.000000 1.000000
vn 0.000000 0.000000 1.000000
vn 0.000000 0.000000 1.000000
vn 0.000000 0.000000 1.000000
vn 0.000000 1.000000 0.000000
vn 0.000000 1.000000 0.000000
vn 0.000000 1.000000 0.000000
vn 0.000000 1.000000 0.000000
vn 0.000000 1.000000 0.000000
vn 0.000000 1.000000 0.000000
vn 0.000000 1.000000 0.000000
vn 0.000000 1.000000 0.000000
vn 0.000000 0.000000 -1.000000
vn 0.000000 0.000000 -1.000000
vn 0.000000 0.000000 -1.000000
vn 0.000000 0.000000 -1.000000
vn 0.000000 -1.000000 0.000000
vn 0.000000 -1.000000 0.000000
vn 0.000000 -1.000000 0.000000
vn 0.000000 -1.000000 0.000000
vn 0.000000 -1.000000 0.000000
vn 0.000000 -1.000000 0.000000
vn 0.000000 -1.000000 0.000000
vn 0.000000 -1.000000 0.000000
vn 1.000000 0.000000 0.000000
vn 1.000000 0.000000 0.000000
vn 1.000000 0.000000 0.000000
vn 1.000000 0.000000 0.000000
vn 0.000000 0.000000 -1.000000
vn 0.000000 0.000000 -1.000000
vn 0.000000 0.000000 -1.000000
vn 0.000000 0.000000 -1.000000
vn -1.000000 0.000000 0.000000
vn -1.000000 0.000000 0.000000
vn -1.000000 0.000000 0.000000
vn -1.000000 0.000000 0.000000
vn 0.000000 0.000000 1.000000
vn 0.000000 0.000000 1.000000
vn 0.000000 0.000000 1.000000
vn 0.000000 0.000000 1.000000
s 1
g pCube3
usemtl initialShadingGroup
f 17/29/49 41/68/50 42/70/51 19/31/52
s 2
f 19/31/53 42/70/54 43/71/55 35/59/56
s 3
f 21/33/57 45/73/58 46/74/59 23/35/60
s 4
f 36/61/61 48/76/62 41/69/63 17/37/64
s 5
f 18/30/65 38/64/66 39/66/67 20/32/68
s 6
f 35/58/69 36/60/70 17/29/71 19/31/72
f 23/41/73 26/45/74 25/43/75 21/42/76
s 4
f 23/35/77 46/74/78 47/75/79 26/46/80
s 5
f 28/50/81 27/48/82 24/39/83 22/40/84
s 2
f 25/44/85 44/72/86 45/73/87 21/33/88
s 1
f 30/53/89 29/51/90 18/30/91 20/32/92
s 2
f 39/65/93 40/67/94 30/53/95 20/32/96
f 32/55/97 31/54/98 28/49/99 22/34/100
s 3
f 33/56/101 32/55/102 22/34/103 24/36/104
s 4
f 34/57/105 33/56/106 24/36/107 27/47/108
f 29/52/109 37/62/110 38/63/111 18/38/112
s 6
f 25/43/75 26/45/74 36/60/70 35/58/69
s 4
f 26/46/80 47/75/79 48/76/62 36/61/61
f 38/63/111 37/62/110 34/57/105 27/47/108
s 5
f 39/66/67 38/64/66 27/48/82 28/50/81
s 2
f 31/54/98 40/67/94 39/65/93 28/49/99
f 35/59/56 43/71/55 44/72/86 25/44/85
s 1
f 42/70/51 41/68/50 29/51/90 30/53/89
s 2
f 43/71/55 42/70/54 30/53/95 40/67/94
f 45/73/87 44/72/86 31/54/98 32/55/97
s 3
f 46/74/59 45/73/58 32/55/102 33/56/101
s 4
f 47/75/79 46/74/78 33/56/106 34/57/105
f 41/69/63 48/76/62 37/62/110 29/52/109
s off
f 44/72/113 43/71/114 49/78/115 50/77/116
f 43/71/117 40/67/118 51/79/119 49/78/120
f 40/67/121 31/54/122 52/80/123 51/79/124
f 31/54/125 44/72/126 50/77/127 52/80/128
