# This file uses centimeters as units for non-parametric coordinates.

mtllib Vending machine.mtl
g default
v -1.819086 0.019706 2.096846
v 1.819086 0.019706 2.096846
v -1.819086 5.949044 2.096846
v 1.819086 5.949044 2.096846
v -1.819086 5.949044 -2.096846
v 1.819086 5.949044 -2.096846
v -1.819086 0.019706 -2.096846
v 1.819086 0.019706 -2.096846
v -1.662257 0.275298 2.096846
v 1.662257 0.275298 2.096846
v 1.662257 5.693452 2.096846
v -1.662257 5.693452 2.096846
v -1.662257 0.275298 1.961688
v 1.662257 0.275298 1.961688
v 1.662257 5.693452 1.961688
v -1.662257 5.693452 1.961688
v 0.001670 0.019706 2.258633
v 0.001526 0.275298 2.258633
v 0.001526 0.275298 2.151031
v 0.001526 5.693452 2.151031
v 0.001526 5.693452 2.258633
v 0.001670 5.949044 2.258633
v 0.001670 5.949044 -2.096846
v 0.001670 0.019706 -2.096846
v -1.819086 0.832600 2.096846
v -1.819086 0.832600 -2.096846
v 0.001670 0.832600 -2.096846
v 1.819086 0.832600 -2.096846
v 1.819086 0.832600 2.096846
v 1.662257 1.018111 2.096846
v 1.662257 1.018111 1.961688
v 0.001526 1.018111 2.151031
v -1.662257 1.018111 1.961688
v -1.662257 1.018111 2.096846
v -1.819086 0.243543 2.096847
v -1.819086 0.243543 -2.096846
v 0.001670 0.243543 -2.096846
v 1.819086 0.243543 -2.096846
v 1.819086 0.243543 2.096847
v 1.662257 0.479837 2.096847
v 1.662257 0.479837 1.961688
v 0.001526 0.479837 2.151031
v -1.662257 0.479837 1.961688
v -1.662257 0.479837 2.096847
v -0.817224 0.019706 2.185868
v -0.746769 0.275298 2.185868
v -0.746769 0.275298 2.065873
v -0.746769 0.479837 2.065873
v -0.746769 1.018111 2.065873
v -0.746769 5.693452 2.065873
v -0.746769 5.693452 2.185868
v -0.817224 5.949044 2.185868
v -0.817224 5.949044 -2.096846
v -0.817224 0.832600 -2.096846
v -0.817224 0.243543 -2.096846
v -0.817224 0.019706 -2.096846
v 0.846383 0.019706 2.183436
v 0.773414 0.275298 2.183436
v 0.773414 0.275298 2.063027
v 0.773414 0.479837 2.063027
v 0.773414 1.018111 2.063026
v 0.773414 5.693452 2.063027
v 0.773414 5.693452 2.183436
v 0.846383 5.949044 2.183436
v 0.846383 5.949044 -2.096846
v 0.846383 0.832600 -2.096846
v 0.846383 0.243543 -2.096846
v 0.846383 0.019706 -2.096846
v 0.000509 1.018111 1.607673
v -0.747786 1.018111 1.522515
v -0.747787 0.479837 1.522515
v 0.000509 0.479837 1.607673
v 0.772397 0.479837 1.519669
v 0.772397 1.018111 1.519668
vt 0.375000 0.000000
vt 0.625000 0.000000
vt 0.375000 0.250000
vt 0.625000 0.250000
vt 0.375000 0.500000
vt 0.625000 0.500000
vt 0.375000 0.750000
vt 0.625000 0.750000
vt 0.375000 1.000000
vt 0.625000 1.000000
vt 0.875000 0.000000
vt 0.875000 0.250000
vt 0.125000 0.000000
vt 0.125000 0.250000
vt 0.375000 0.000000
vt 0.625000 0.000000
vt 0.625000 0.250000
vt 0.375000 0.250000
vt 0.375000 0.000000
vt 0.625000 0.000000
vt 0.625000 0.250000
vt 0.375000 0.250000
vt 0.500115 0.000000
vt 0.500115 1.000000
vt 0.500115 0.000000
vt 0.500115 0.000000
vt 0.500115 0.250000
vt 0.500115 0.250000
vt 0.500115 0.250000
vt 0.500115 0.500000
vt 0.500115 0.750000
vt 0.375000 0.034274
vt 0.125000 0.034274
vt 0.375000 0.715726
vt 0.500115 0.715726
vt 0.625000 0.715726
vt 0.875000 0.034274
vt 0.625000 0.034274
vt 0.625000 0.034274
vt 0.625000 0.034274
vt 0.500115 0.034274
vt 0.375000 0.034274
vt 0.375000 0.034274
vt 0.375000 0.009438
vt 0.125000 0.009438
vt 0.375000 0.740562
vt 0.500115 0.740562
vt 0.625000 0.740562
vt 0.875000 0.009438
vt 0.625000 0.009438
vt 0.625000 0.009438
vt 0.625000 0.009438
vt 0.500115 0.009438
vt 0.375000 0.009438
vt 0.375000 0.009438
vt 0.443844 0.000000
vt 0.443844 1.000000
vt 0.443844 0.000000
vt 0.443844 0.000000
vt 0.443844 0.009438
vt 0.443844 0.034274
vt 0.443844 0.250000
vt 0.443844 0.250000
vt 0.443844 0.250000
vt 0.443844 0.500000
vt 0.443844 0.715726
vt 0.443844 0.740562
vt 0.443844 0.750000
vt 0.558160 0.000000
vt 0.558160 1.000000
vt 0.558160 0.000000
vt 0.558160 0.000000
vt 0.558160 0.009438
vt 0.558160 0.034274
vt 0.558160 0.250000
vt 0.558160 0.250000
vt 0.558160 0.250000
vt 0.558160 0.500000
vt 0.558160 0.715726
vt 0.558160 0.740562
vt 0.558160 0.750000
vt 0.500115 0.034274
vt 0.443844 0.034274
vt 0.443844 0.009438
vt 0.500115 0.009438
vt 0.558160 0.009438
vt 0.558160 0.034274
vn 0.000000 1.000000 0.000000
vn 0.000000 1.000000 0.000000
vn 0.000000 1.000000 0.000000
vn 0.000000 1.000000 0.000000
vn 0.000000 0.000000 -1.000000
vn 0.000000 0.000000 -1.000000
vn 0.000000 0.000000 -1.000000
vn 0.000000 0.000000 -1.000000
vn 0.000000 -1.000000 0.000000
vn 0.000000 -1.000000 0.000000
vn 0.000000 -1.000000 0.000000
vn 0.000000 -1.000000 0.000000
vn 1.000000 0.000000 0.000000
vn 1.000000 0.000000 0.000000
vn 1.000000 0.000000 0.000000
vn 1.000000 0.000000 0.000000
vn -1.000000 0.000000 0.000000
vn -1.000000 0.000000 0.000000
vn -1.000000 0.000000 0.000000
vn -1.000000 0.000000 0.000000
vn -0.092384 0.041076 0.994876
vn -0.092423 0.029000 0.995297
vn -0.092426 0.027653 0.995336
vn -0.092384 0.041076 0.994876
vn -0.000002 -0.000001 1.000000
vn -0.000002 -0.000001 1.000000
vn -0.000000 0.000000 1.000000
vn -0.000002 -0.000001 1.000000
vn -0.092426 -0.027653 0.995336
vn -0.092423 -0.029000 0.995297
vn -0.092384 -0.041076 0.994876
vn -0.092384 -0.041076 0.994876
vn 0.000000 0.000000 1.000000
vn 0.000002 -0.000001 1.000000
vn 0.000003 -0.000001 1.000000
vn 0.000003 -0.000001 1.000000
vn 0.000000 1.000000 0.000000
vn 0.000000 1.000000 0.000000
vn 0.000000 1.000000 0.000000
vn 0.000000 1.000000 0.000000
vn -1.000000 0.000001 0.000000
vn -1.000000 -0.000000 0.000000
vn -1.000000 -0.000000 0.000000
vn -1.000000 0.000001 0.000000
vn 0.000000 -1.000000 0.000000
vn 0.000000 -1.000000 0.000000
vn 0.000000 -1.000000 0.000000
vn 0.000000 -1.000000 0.000000
vn 1.000000 -0.000000 0.000000
vn 1.000000 -0.000000 0.000000
vn 1.000000 0.000001 0.000000
vn 1.000000 0.000001 0.000000
vn 0.001518 0.013042 0.999914
vn 0.001537 0.013042 0.999914
vn 0.092591 0.029132 0.995278
vn 0.092595 0.027730 0.995318
vn 0.000000 1.000000 0.000000
vn 0.000000 1.000000 0.000000
vn 0.000000 1.000000 0.000000
vn 0.000000 1.000000 0.000000
vn 0.000000 -1.000000 0.000000
vn 0.000000 -1.000000 0.000000
vn 0.000000 -1.000000 0.000000
vn 0.000000 -1.000000 0.000000
vn 0.092594 -0.027730 0.995318
vn 0.092591 -0.029132 0.995278
vn 0.001537 -0.013042 0.999914
vn 0.001519 -0.013042 0.999914
vn 0.000000 1.000000 0.000000
vn 0.000000 1.000000 0.000000
vn 0.000000 1.000000 0.000000
vn 0.000000 1.000000 0.000000
vn 0.000000 0.000000 -1.000000
vn 0.000000 0.000000 -1.000000
vn 0.000000 0.000000 -1.000000
vn 0.000000 0.000000 -1.000000
vn 0.000000 -1.000000 0.000000
vn 0.000000 -1.000000 0.000000
vn 0.000000 -1.000000 0.000000
vn 0.000000 -1.000000 0.000000
vn -1.000000 0.000000 0.000000
vn -1.000000 0.000000 0.000000
vn -1.000000 0.000000 0.000000
vn -1.000000 0.000000 0.000000
vn 0.000000 0.000000 -1.000000
vn 0.000000 0.000000 -1.000000
vn 0.000000 0.000000 -1.000000
vn 0.000000 0.000000 -1.000000
vn 0.000000 0.000000 -1.000000
vn 0.000000 0.000000 -1.000000
vn 0.000000 0.000000 -1.000000
vn 0.000000 0.000000 -1.000000
vn 1.000000 0.000000 0.000000
vn 1.000000 0.000000 0.000000
vn 1.000000 0.000000 0.000000
vn 1.000000 0.000000 0.000000
vn 0.000000 0.000000 1.000000
vn 0.000000 0.000000 1.000000
vn 0.000000 0.000000 1.000000
vn 0.000000 0.000000 1.000000
vn -1.000000 -0.000000 0.000000
vn -1.000000 -0.000000 0.000000
vn -1.000000 0.000000 0.000000
vn -1.000000 0.000000 0.000000
vn 1.000000 0.000000 0.000000
vn 1.000000 -0.000000 0.000000
vn 1.000000 -0.000000 0.000000
vn 1.000000 0.000000 0.000000
vn 0.000000 0.000000 1.000000
vn 0.000000 0.000000 1.000000
vn 0.000000 0.000000 1.000000
vn 0.000000 0.000000 1.000000
vn 0.001872 0.000000 0.999998
vn 0.001872 0.000000 0.999998
vn 0.001872 0.000000 0.999998
vn 0.001872 0.000000 0.999998
vn 0.001872 0.000000 0.999998
vn 0.001872 0.000000 0.999998
vn 0.092550 0.041605 0.994838
vn 0.092550 0.041605 0.994838
vn 0.000000 1.000000 0.000000
vn 0.000000 1.000000 0.000000
vn 0.000000 -1.000000 0.000000
vn 0.000000 -1.000000 0.000000
vn 0.092550 -0.041605 0.994838
vn 0.092550 -0.041605 0.994838
vn 0.000000 1.000000 0.000000
vn 0.000000 1.000000 0.000000
vn 0.000000 0.000000 -1.000000
vn 0.000000 0.000000 -1.000000
vn 0.000000 0.000000 -1.000000
vn 0.000000 0.000000 -1.000000
vn 0.000000 -1.000000 0.000000
vn 0.000000 -1.000000 0.000000
vn 0.000000 -1.000000 -0.000000
vn 0.000000 -1.000000 -0.000000
vn 0.000000 -1.000000 -0.000000
vn 0.000000 -1.000000 -0.000000
vn 0.999998 -0.000000 -0.001873
vn 0.999998 -0.000000 -0.001873
vn 0.999998 -0.000000 -0.001873
vn 0.999998 -0.000000 -0.001873
vn 0.000000 1.000000 -0.000000
vn -0.000000 1.000000 -0.000000
vn -0.000000 1.000000 -0.000000
vn 0.000000 1.000000 -0.000000
vn -0.000000 1.000000 -0.000000
vn -0.000000 1.000000 -0.000000
vn -0.999998 -0.000000 0.001873
vn -0.999998 -0.000000 0.001873
vn -0.999998 -0.000000 0.001873
vn -0.999998 -0.000000 0.001873
vn 0.000000 -1.000000 -0.000000
vn 0.000000 -1.000000 -0.000000
s 1
g pCube1
usemtl initialShadingGroup
f 3/3/1 52/64/2 53/65/3 5/5/4
s 2
f 36/46/5 55/67/6 56/68/7 7/7/8
s 3
f 7/7/9 56/68/10 45/57/11 1/9/12
s 4
f 2/2/13 8/11/14 38/49/15 39/50/16
s 5
f 7/13/17 1/1/18 35/44/19 36/45/20
s 6
f 1/1/21 45/56/22 46/58/23 9/15/24
s 7
f 2/2/25 39/50/26 40/51/27 10/16/28
s 8
f 51/63/29 52/64/30 3/3/31 12/18/32
s 9
f 44/55/33 35/44/34 1/1/35 9/15/36
s 10
f 9/15/37 46/58/38 47/59/39 13/19/40
s 11
f 10/16/41 40/51/42 41/52/43 14/20/44
s 12
f 50/62/45 51/63/46 12/18/47 16/22/48
s 13
f 43/54/49 44/55/50 9/15/51 13/19/52
s 6
f 18/25/53 17/23/54 57/69/55 58/71/56
s 10
f 19/26/57 18/25/58 58/71/59 59/72/60
s 12
f 62/75/61 63/76/62 21/28/63 20/27/64
s 8
f 63/76/65 64/77/66 22/29/67 21/28/68
s 1
f 23/30/69 22/29/70 64/77/71 65/78/72
s 2
f 24/31/73 37/47/74 67/80/75 68/81/76
s 3
f 17/24/77 24/31/78 68/81/79 57/70/80
s 5
f 26/33/81 25/32/82 3/3/83 5/14/84
s 2
f 5/5/85 53/65/86 54/66/87 26/34/88
f 65/78/89 66/79/90 27/35/91 23/30/92
s 4
f 29/38/93 28/37/94 6/12/95 4/4/96
s 7
f 30/39/97 29/38/98 4/4/99 11/17/100
s 11
f 31/40/101 30/39/102 11/17/103 15/21/104
s 13
f 12/18/105 34/43/106 33/42/107 16/22/108
s 9
f 3/3/109 25/32/110 34/43/111 12/18/112
s 5
f 36/45/20 35/44/19 25/32/82 26/33/81
s 2
f 26/34/88 54/66/87 55/67/6 36/46/5
f 66/79/90 67/80/75 37/47/74 27/35/91
s 4
f 39/50/16 38/49/15 28/37/94 29/38/93
s 7
f 40/51/27 39/50/26 29/38/98 30/39/97
s 11
f 41/52/43 40/51/42 30/39/102 31/40/101
s 13
f 33/42/107 34/43/106 44/55/50 43/54/49
s 9
f 34/43/111 25/32/110 35/44/34 44/55/33
s 6
f 46/58/23 45/56/22 17/23/54 18/25/53
s 10
f 47/59/39 46/58/38 18/25/58 19/26/57
s off
f 69/82/113 70/83/114 71/84/115 72/85/116 73/86/117 74/87/118
s 12
f 20/27/64 21/28/63 51/63/46 50/62/45
s 8
f 21/28/68 22/29/67 52/64/30 51/63/29
s 1
f 53/65/3 52/64/2 22/29/70 23/30/69
s 2
f 54/66/87 53/65/86 23/30/92 27/35/91
f 55/67/6 54/66/87 27/35/91 37/47/74
f 56/68/7 55/67/6 37/47/74 24/31/73
s 3
f 45/57/11 56/68/10 24/31/78 17/24/77
s 6
f 58/71/56 57/69/55 2/2/119 10/16/120
s 10
f 59/72/60 58/71/59 10/16/121 14/20/122
s 12
f 11/17/123 63/76/62 62/75/61 15/21/124
s 8
f 4/4/125 64/77/66 63/76/65 11/17/126
s 1
f 65/78/72 64/77/71 4/4/127 6/6/128
s 2
f 28/36/129 66/79/90 65/78/89 6/6/130
f 38/48/131 67/80/75 66/79/90 28/36/129
f 68/81/76 67/80/75 38/48/131 8/8/132
s 3
f 57/70/80 68/81/79 8/8/133 2/10/134
s 18
f 32/41/135 49/61/136 70/83/137 69/82/138
s off
f 49/61/139 48/60/140 71/84/141 70/83/142
s 19
f 48/60/143 42/53/144 72/85/145 71/84/146
f 42/53/144 60/73/147 73/86/148 72/85/145
s off
f 60/73/149 61/74/150 74/87/151 73/86/152
s 18
f 61/74/153 32/41/135 69/82/138 74/87/154
g default
v -1.662257 0.275298 1.967754
v 1.662257 0.275298 1.967754
v 1.662257 5.693452 1.967754
v -1.662257 5.693452 1.967754
v 0.001526 0.275298 2.157096
v 0.001526 5.693452 2.157096
v 1.662257 1.018111 1.967754
v 0.001526 1.018111 2.157096
v -1.662257 1.018111 1.967754
v 1.662257 0.479837 1.967754
v 0.001526 0.479837 2.157096
v -1.662257 0.479837 1.967754
v -0.746769 0.275298 2.071938
v -0.746769 0.479837 2.071938
v -0.746769 1.018111 2.071938
v -0.746769 5.693452 2.071938
v 0.773414 0.275298 2.069092
v 0.773414 0.479837 2.069092
v 0.773414 1.018111 2.069091
v 0.773414 5.693452 2.069091
vt 0.375000 0.000000
vt 0.625000 0.000000
vt 0.625000 0.250000
vt 0.375000 0.250000
vt 0.500115 0.000000
vt 0.500115 0.250000
vt 0.625000 0.034274
vt 0.500115 0.034274
vt 0.375000 0.034274
vt 0.625000 0.009438
vt 0.500115 0.009438
vt 0.375000 0.009438
vt 0.443844 0.000000
vt 0.443844 0.009438
vt 0.443844 0.034274
vt 0.443844 0.250000
vt 0.558160 0.000000
vt 0.558160 0.009438
vt 0.558160 0.034274
vt 0.558160 0.250000
vn -0.113071 -0.000000 0.993587
vn -0.113073 -0.000000 0.993587
vn -0.113072 0.000000 0.993587
vn -0.113071 0.000000 0.993587
vn 0.113278 -0.000000 0.993563
vn 0.113277 0.000001 0.993563
vn 0.001872 -0.000000 0.999998
vn 0.001872 -0.000000 0.999998
vn 0.001872 -0.000000 0.999998
vn 0.001872 -0.000000 0.999998
vn 0.113278 0.000000 0.993563
vn 0.113278 -0.000000 0.993563
vn -0.113071 0.000000 0.993587
vn -0.113073 0.000000 0.993587
vn -0.113073 0.000000 0.993587
vn -0.113071 0.000000 0.993587
vn 0.113277 0.000001 0.993563
vn 0.113278 -0.000000 0.993563
vn 0.113277 0.000000 0.993564
vn 0.113277 -0.000000 0.993564
s 1
g pCube2
usemtl initialShadingGroup
f 75/88/155 87/100/156 88/101/157 86/99/158
f 91/104/159 92/105/160 85/98/161 79/92/162
f 80/93/163 82/95/164 93/106/165 94/107/166
f 83/96/167 89/102/168 90/103/169 78/91/170
f 86/99/158 88/101/157 89/102/168 83/96/167
f 88/101/157 87/100/156 79/92/162 85/98/161
f 90/103/169 89/102/168 82/95/164 80/93/163
f 84/97/171 92/105/160 91/104/159 76/89/172
f 81/94/173 93/106/165 92/105/160 84/97/171
f 94/107/166 93/106/165 81/94/173 77/90/174
